<svg width="24" height="25" viewBox="0 0 24 25" fill="none" xmlns="http://www.w3.org/2000/svg">
<path fill-rule="evenodd" clip-rule="evenodd" d="M5 20.5V9.5H3V22.5H21V9.5H19V20.5H5Z" fill="#A2A5AD"/>
<path d="M22.0001 12.5002C21.7801 12.5002 21.5601 12.4302 21.3801 12.2802L12.6201 5.32016C12.2501 5.03016 11.7401 5.03016 11.3801 5.32016L2.63005 12.2802C2.20005 12.6202 1.57005 12.5502 1.22005 12.1202C0.880053 11.6902 0.950053 11.0602 1.38005 10.7102L10.1301 3.75016C11.2301 2.88016 12.7701 2.88016 13.8601 3.75016L22.6201 10.7102C23.0501 11.0502 23.1201 11.6802 22.7801 12.1202C22.5801 12.3702 22.2901 12.5002 22.0001 12.5002V12.5002Z" fill="#A2A5AD"/>
</svg>
