<svg width="21" height="22" viewBox="0 0 21 22" fill="none" xmlns="http://www.w3.org/2000/svg">
<g id="mdi:web">
<path id="Vector" d="M14.315 12.75C14.385 12.1725 14.4375 11.595 14.4375 11C14.4375 10.405 14.385 9.8275 14.315 9.25H17.2725C17.4125 9.81 17.5 10.3962 17.5 11C17.5 11.6038 17.4125 12.19 17.2725 12.75M12.7663 17.615C13.2913 16.6437 13.6938 15.5938 13.9738 14.5H16.555C15.7073 15.9597 14.3623 17.0655 12.7663 17.615ZM12.5475 12.75H8.4525C8.365 12.1725 8.3125 11.595 8.3125 11C8.3125 10.405 8.365 9.81875 8.4525 9.25H12.5475C12.6263 9.81875 12.6875 10.405 12.6875 11C12.6875 11.595 12.6263 12.1725 12.5475 12.75ZM10.5 17.965C9.77375 16.915 9.1875 15.7513 8.82875 14.5H12.1712C11.8125 15.7513 11.2262 16.915 10.5 17.965ZM7 7.5H4.445C5.28381 6.03615 6.62783 4.92859 8.225 4.385C7.7 5.35625 7.30625 6.40625 7 7.5ZM4.445 14.5H7C7.30625 15.5938 7.7 16.6437 8.225 17.615C6.63098 17.0658 5.28875 15.9597 4.445 14.5ZM3.7275 12.75C3.5875 12.19 3.5 11.6038 3.5 11C3.5 10.3962 3.5875 9.81 3.7275 9.25H6.685C6.615 9.8275 6.5625 10.405 6.5625 11C6.5625 11.595 6.615 12.1725 6.685 12.75M10.5 4.02625C11.2262 5.07625 11.8125 6.24875 12.1712 7.5H8.82875C9.1875 6.24875 9.77375 5.07625 10.5 4.02625ZM16.555 7.5H13.9738C13.6995 6.41641 13.294 5.37034 12.7663 4.385C14.3763 4.93625 15.715 6.0475 16.555 7.5ZM10.5 2.25C5.66125 2.25 1.75 6.1875 1.75 11C1.75 13.3206 2.67187 15.5462 4.31282 17.1872C5.12533 17.9997 6.08992 18.6442 7.15152 19.0839C8.21312 19.5237 9.35093 19.75 10.5 19.75C12.8206 19.75 15.0462 18.8281 16.6872 17.1872C18.3281 15.5462 19.25 13.3206 19.25 11C19.25 9.85093 19.0237 8.71312 18.5839 7.65152C18.1442 6.58992 17.4997 5.62533 16.6872 4.81282C15.8747 4.0003 14.9101 3.35578 13.8485 2.91605C12.7869 2.47633 11.6491 2.25 10.5 2.25Z" fill="#83868E"/>
</g>
</svg>
