<svg width="14" height="14" viewBox="0 0 14 14" fill="none" xmlns="http://www.w3.org/2000/svg">
<g id="11.location">
<path id="Vector" d="M7.00577 10.348C9.70552 10.348 11.8941 8.15938 11.8941 5.45963C11.8941 2.75987 9.70552 0.571289 7.00577 0.571289C4.30602 0.571289 2.11743 2.75987 2.11743 5.45963C2.11743 8.15938 4.30602 10.348 7.00577 10.348Z" fill="#83868E"/>
<path id="Vector_2" d="M11.8708 5.83325C11.7116 7.39099 11.1876 8.8893 10.3413 10.2068C9.49509 11.5243 8.3504 12.6239 7 13.4166V5.83325H11.8708Z" fill="#83868E"/>
<path id="Vector_3" d="M2.13501 5.83325C2.29366 7.39045 2.81675 8.88841 3.66195 10.2059C4.50715 11.5233 5.65069 12.6232 7.00001 13.4166V5.83325H2.13501Z" fill="#83868E"/>
<path id="Vector_4" d="M7.00561 7C7.97211 7 8.75561 6.2165 8.75561 5.25C8.75561 4.2835 7.97211 3.5 7.00561 3.5C6.03912 3.5 5.25562 4.2835 5.25562 5.25C5.25562 6.2165 6.03912 7 7.00561 7Z" fill="white"/>
</g>
</svg>
