<svg width="26" height="26" viewBox="0 0 26 26" fill="none" xmlns="http://www.w3.org/2000/svg">
<path d="M13 21.3957C17.6369 21.3957 21.3958 17.6367 21.3958 12.9998C21.3958 8.36295 17.6369 4.604 13 4.604C8.36307 4.604 4.60413 8.36295 4.60413 12.9998C4.60413 17.6367 8.36307 21.3957 13 21.3957Z" fill="#83868E"/>
<path d="M10.8333 2.1665H15.1667C15.454 2.1665 15.7295 2.28064 15.9327 2.4838C16.1359 2.68697 16.25 2.96252 16.25 3.24984V5.4165H9.75V3.24984C9.75 2.96252 9.86414 2.68697 10.0673 2.4838C10.2705 2.28064 10.546 2.1665 10.8333 2.1665Z" fill="#83868E"/>
<path d="M2.53593 9.46757L4.7026 5.71479C4.84626 5.46597 5.0829 5.28439 5.36043 5.21003C5.63795 5.13567 5.93363 5.1746 6.18246 5.31826L8.05885 6.4016L4.80885 12.0308L2.93246 10.9474C2.68363 10.8038 2.50209 10.5671 2.42773 10.2896C2.35336 10.0121 2.39227 9.71639 2.53593 9.46757Z" fill="#83868E"/>
<path d="M4.70357 20.3011L2.53691 16.5483C2.39325 16.2995 2.35432 16.0037 2.42869 15.7262C2.50305 15.4487 2.68461 15.2121 2.93343 15.0684L4.80982 13.9851L8.05982 19.6143L6.18343 20.6976C5.93461 20.8413 5.63891 20.8802 5.36139 20.8058C5.08386 20.7314 4.84723 20.5499 4.70357 20.3011Z" fill="#83868E"/>
<path d="M15.156 23.8335H10.8227C10.5354 23.8335 10.2599 23.7193 10.0567 23.5162C9.85353 23.313 9.73938 23.0375 9.73938 22.7502V20.5835H16.2394V22.7502C16.2394 23.0375 16.1253 23.313 15.9221 23.5162C15.7189 23.7193 15.4434 23.8335 15.156 23.8335Z" fill="#83868E"/>
<path d="M23.4577 16.549L21.2911 20.3018C21.1474 20.5506 20.9108 20.7322 20.6332 20.8066C20.3557 20.8809 20.06 20.842 19.8112 20.6983L17.9348 19.615L21.1848 13.9858L23.0612 15.0692C23.31 15.2128 23.4916 15.4495 23.5659 15.727C23.6403 16.0045 23.6014 16.3002 23.4577 16.549Z" fill="#83868E"/>
<path d="M21.2922 5.71603L23.4588 9.4688C23.6025 9.71763 23.6414 10.0134 23.567 10.2909C23.4927 10.5684 23.3111 10.805 23.0623 10.9487L21.1859 12.032L17.9359 6.40283L19.8123 5.3195C20.0611 5.17584 20.3568 5.13693 20.6343 5.21129C20.9119 5.28566 21.1485 5.4672 21.2922 5.71603Z" fill="#83868E"/>
<path d="M13 15.7082C14.4957 15.7082 15.7083 14.4956 15.7083 12.9998C15.7083 11.5041 14.4957 10.2915 13 10.2915C11.5042 10.2915 10.2916 11.5041 10.2916 12.9998C10.2916 14.4956 11.5042 15.7082 13 15.7082Z" fill="white"/>
</svg>
