<svg width="26" height="26" viewBox="0 0 26 26" fill="none" xmlns="http://www.w3.org/2000/svg">
<path d="M10.9628 13.126L17.7017 19.8633C17.8543 20.0158 17.94 20.2228 17.94 20.4385C17.94 20.6543 17.8543 20.8612 17.7017 21.0138C17.5491 21.1663 17.3422 21.2521 17.1265 21.2521C16.9107 21.2521 16.7038 21.1663 16.5512 21.0138L9.2387 13.7013C9.16304 13.6258 9.10301 13.5361 9.06204 13.4374C9.02108 13.3387 9 13.2329 9 13.126C9 13.0192 9.02108 12.9133 9.06204 12.8146C9.10301 12.7159 9.16304 12.6262 9.2387 12.5508L16.5512 5.23828C16.7038 5.08571 16.9107 5 17.1265 5C17.3422 5 17.5491 5.08571 17.7017 5.23828C17.8543 5.39084 17.94 5.59777 17.94 5.81353C17.94 6.02929 17.8543 6.23621 17.7017 6.38878L10.9628 13.126Z" fill="#50535C"/>
</svg>
