<svg width="21" height="21" viewBox="0 0 21 21" fill="none" xmlns="http://www.w3.org/2000/svg">
<g id="21.subway">
<path id="Vector" d="M14.875 2.625C15.3563 2.625 15.75 3.01875 15.75 3.5V13.125C15.75 13.6063 15.3563 14 14.875 14H6.125C5.64375 14 5.25 13.6063 5.25 13.125V3.5C5.25 3.01875 5.64375 2.625 6.125 2.625H14.875ZM14.875 0.875H6.125C4.6725 0.875 3.5 2.0475 3.5 3.5V13.125C3.5 14.5775 4.6725 15.75 6.125 15.75H14.875C16.3275 15.75 17.5 14.5775 17.5 13.125V3.5C17.5 2.0475 16.3275 0.875 14.875 0.875Z" fill="#83868E"/>
<path id="Vector_2" d="M13.125 5.25V7.875H7.875V5.25H13.125ZM14 3.5H7C6.51875 3.5 6.125 3.89375 6.125 4.375V8.75C6.125 9.23125 6.51875 9.625 7 9.625H14C14.4813 9.625 14.875 9.23125 14.875 8.75V4.375C14.875 3.89375 14.4813 3.5 14 3.5Z" fill="#83868E"/>
<path id="Vector_3" d="M7.4375 10.5C6.71125 10.5 6.125 11.0863 6.125 11.8125C6.125 12.5387 6.71125 13.125 7.4375 13.125C8.16375 13.125 8.75 12.5387 8.75 11.8125C8.75 11.0863 8.16375 10.5 7.4375 10.5Z" fill="#83868E"/>
<path id="Vector_4" d="M13.5625 10.5C12.8363 10.5 12.25 11.0863 12.25 11.8125C12.25 12.5387 12.8363 13.125 13.5625 13.125C14.2887 13.125 14.875 12.5387 14.875 11.8125C14.875 11.0863 14.2887 10.5 13.5625 10.5Z" fill="#83868E"/>
<path id="Vector_5" d="M8.75 15.75H6.125L1.75 20.125H4.375L8.75 15.75Z" fill="#83868E"/>
<path id="Vector_6" d="M14.875 15.75H12.25L16.625 20.125H19.25L14.875 15.75Z" fill="#83868E"/>
</g>
</svg>
