<svg width="21" height="21" viewBox="0 0 21 21" fill="none" xmlns="http://www.w3.org/2000/svg">
<g id="mingcute:disabled-fill">
<g id="Group">
<path id="Vector" d="M6.76196 8.08938L7.23796 9.77287C6.61685 9.94935 6.04867 10.2759 5.58347 10.7236C5.11827 11.1714 4.77034 11.7267 4.57031 12.3407C4.37028 12.9546 4.3243 13.6083 4.43641 14.2442C4.54853 14.8801 4.81531 15.4786 5.21324 15.9871C5.61117 16.4956 6.12805 16.8984 6.71834 17.1601C7.30863 17.4218 7.95421 17.5343 8.59822 17.4877C9.24223 17.4411 9.8649 17.2369 10.4114 16.8929C10.9578 16.549 11.4114 16.076 11.732 15.5155L11.8212 15.3519L13.3787 16.1481C12.9533 16.9805 12.3293 17.6953 11.5619 18.2291C10.7944 18.7629 9.90726 19.0993 8.97885 19.2085C8.05044 19.3177 7.10941 19.1965 6.23904 18.8554C5.36867 18.5143 4.59579 17.9639 3.9888 17.253C3.3818 16.5421 2.9594 15.6925 2.75897 14.7794C2.55854 13.8663 2.58627 12.9179 2.8397 12.0181C3.09313 11.1183 3.56444 10.2948 4.21194 9.62055C4.85943 8.94629 5.66315 8.44203 6.55196 8.15238L6.76196 8.08938ZM9.62496 1.75C10.2031 1.74969 10.7651 1.94024 11.2238 2.29205C11.6826 2.64387 12.0123 3.13729 12.1619 3.6957C12.3115 4.25412 12.2726 4.84631 12.0512 5.38034C11.8298 5.91437 11.4383 6.36038 10.9375 6.64913V7.80413L12.4626 8.3125H14C14.3481 8.3125 14.6819 8.45078 14.928 8.69692C15.1742 8.94306 15.3125 9.2769 15.3125 9.625C15.3125 9.9731 15.1742 10.3069 14.928 10.5531C14.6819 10.7992 14.3481 10.9375 14 10.9375H12.25C12.1082 10.9375 11.97 10.915 11.8352 10.8701L10.9375 10.5709V11.375C10.9375 11.491 10.9836 11.6023 11.0656 11.6844C11.1476 11.7664 11.2589 11.8125 11.375 11.8125H13.125C13.6004 11.8125 14.0693 11.9232 14.4945 12.1358C14.9198 12.3484 15.2897 12.6571 15.575 13.0375L17.2812 15.3125H17.5C17.8481 15.3125 18.1819 15.4508 18.428 15.6969C18.6742 15.9431 18.8125 16.2769 18.8125 16.625C18.8125 16.9731 18.6742 17.3069 18.428 17.5531C18.1819 17.7992 17.8481 17.9375 17.5 17.9375H16.625C16.4212 17.9375 16.2202 17.8901 16.038 17.7989C15.8557 17.7078 15.6972 17.5755 15.575 17.4125L13.475 14.6125C13.4342 14.5582 13.3814 14.5141 13.3206 14.4837C13.2599 14.4533 13.1929 14.4375 13.125 14.4375H11.375C10.5627 14.4375 9.78377 14.1148 9.20944 13.5405C8.63511 12.9662 8.31246 12.1872 8.31246 11.375V6.64913C7.81162 6.36038 7.42011 5.91437 7.1987 5.38034C6.97729 4.84631 6.93837 4.25412 7.08797 3.6957C7.23757 3.13729 7.56734 2.64387 8.02607 2.29205C8.4848 1.94024 9.04685 1.74969 9.62496 1.75Z" fill="#83868E"/>
</g>
</g>
</svg>
