<svg width="21" height="21" viewBox="0 0 21 21" fill="none" xmlns="http://www.w3.org/2000/svg">
<g id="12.time">
<path id="Vector" d="M10.5093 3.5C14.368 3.5 17.5093 6.64125 17.5093 10.5C17.5093 14.3587 14.368 17.5 10.5093 17.5C6.65053 17.5 3.50928 14.3587 3.50928 10.5C3.50928 6.64125 6.65053 3.5 10.5093 3.5ZM10.5093 1.75C5.67928 1.75 1.75928 5.67 1.75928 10.5C1.75928 15.33 5.67928 19.25 10.5093 19.25C15.3393 19.25 19.2593 15.33 19.2593 10.5C19.2593 5.67 15.3393 1.75 10.5093 1.75Z" fill="#83868E"/>
<path id="Vector_2" d="M13.388 14.6212L9.63428 10.8587V6.125H11.3843V10.1412L14.6218 13.3787L13.388 14.6212Z" fill="#83868E"/>
</g>
</svg>
