<svg width="25" height="25" viewBox="0 0 25 25" fill="none" xmlns="http://www.w3.org/2000/svg">
<path d="M10.5 10.5H14.5C15.8261 10.5 17.0979 11.0268 18.0355 11.9644C18.9732 12.9021 19.5 14.1739 19.5 15.5V21.5C19.5 22.0304 19.2893 22.5391 18.9142 22.9142C18.5391 23.2893 18.0304 23.5 17.5 23.5H7.5C6.96957 23.5 6.46086 23.2893 6.08579 22.9142C5.71071 22.5391 5.5 22.0304 5.5 21.5V15.5C5.5 14.1739 6.02678 12.9021 6.96447 11.9644C7.90215 11.0268 9.17392 10.5 10.5 10.5V10.5Z" fill="#FE720C"/>
<path d="M12.5 9.5C14.7091 9.5 16.5 7.70914 16.5 5.5C16.5 3.29086 14.7091 1.5 12.5 1.5C10.2909 1.5 8.5 3.29086 8.5 5.5C8.5 7.70914 10.2909 9.5 12.5 9.5Z" fill="#FE720C"/>
</svg>
