<svg width="21" height="21" viewBox="0 0 21 21" fill="none" xmlns="http://www.w3.org/2000/svg">
<g id="mdi:money">
<path id="Vector" d="M2.625 5.25H18.375V15.75H2.625V5.25ZM10.5 7.875C11.1962 7.875 11.8639 8.15156 12.3562 8.64384C12.8484 9.13613 13.125 9.80381 13.125 10.5C13.125 11.1962 12.8484 11.8639 12.3562 12.3562C11.8639 12.8484 11.1962 13.125 10.5 13.125C9.80381 13.125 9.13613 12.8484 8.64384 12.3562C8.15156 11.8639 7.875 11.1962 7.875 10.5C7.875 9.80381 8.15156 9.13613 8.64384 8.64384C9.13613 8.15156 9.80381 7.875 10.5 7.875ZM6.125 7C6.125 7.46413 5.94063 7.90925 5.61244 8.23744C5.28425 8.56563 4.83913 8.75 4.375 8.75V12.25C4.83913 12.25 5.28425 12.4344 5.61244 12.7626C5.94063 13.0908 6.125 13.5359 6.125 14H14.875C14.875 13.5359 15.0594 13.0908 15.3876 12.7626C15.7158 12.4344 16.1609 12.25 16.625 12.25V8.75C16.1609 8.75 15.7158 8.56563 15.3876 8.23744C15.0594 7.90925 14.875 7.46413 14.875 7H6.125Z" fill="#83868E"/>
</g>
</svg>
