<svg width="25" height="24" viewBox="0 0 25 24" fill="none" xmlns="http://www.w3.org/2000/svg">
<path d="M17.5098 6H7.50977C5.30063 6 3.50977 7.79086 3.50977 10V17C3.50977 19.2091 5.30063 21 7.50977 21H17.5098C19.7189 21 21.5098 19.2091 21.5098 17V10C21.5098 7.79086 19.7189 6 17.5098 6Z" fill="#FE720C"/>
<path d="M12.5098 2C12.8413 2 13.1593 2.1317 13.3937 2.36612C13.6281 2.60054 13.7598 2.91848 13.7598 3.25V6H11.2598V3.25C11.2598 2.91848 11.3915 2.60054 11.6259 2.36612C11.8603 2.1317 12.1782 2 12.5098 2V2Z" fill="#4C51C6"/>
<path d="M10.5098 12C10.5098 11.1716 9.83819 10.5 9.00977 10.5C8.18134 10.5 7.50977 11.1716 7.50977 12V14C7.50977 14.8284 8.18134 15.5 9.00977 15.5C9.83819 15.5 10.5098 14.8284 10.5098 14V12Z" fill="#4C51C6"/>
<path d="M17.5098 12C17.5098 11.1716 16.8382 10.5 16.0098 10.5C15.1813 10.5 14.5098 11.1716 14.5098 12V14C14.5098 14.8284 15.1813 15.5 16.0098 15.5C16.8382 15.5 17.5098 14.8284 17.5098 14V12Z" fill="#4C51C6"/>
<path d="M3.50977 10V16C2.97933 16 2.47065 15.7893 2.09558 15.4142C1.72051 15.0391 1.50977 14.5304 1.50977 14V12C1.50977 11.4696 1.72051 10.9609 2.09558 10.5858C2.47065 10.2107 2.97933 10 3.50977 10Z" fill="#4C51C6"/>
<path d="M21.5098 10C22.0402 10 22.5489 10.2107 22.924 10.5858C23.2991 10.9609 23.5098 11.4696 23.5098 12V14C23.5098 14.5304 23.2991 15.0391 22.924 15.4142C22.5489 15.7893 22.0402 16 21.5098 16V10Z" fill="#4C51C6"/>
</svg>
