<svg width="32" height="32" viewBox="0 0 32 32" fill="none" xmlns="http://www.w3.org/2000/svg">
<g id="21.subway">
<path id="Vector" d="M21.3333 2.66663H10.6666C8.45749 2.66663 6.66663 4.45749 6.66663 6.66663V20C6.66663 22.2091 8.45749 24 10.6666 24H21.3333C23.5424 24 25.3333 22.2091 25.3333 20V6.66663C25.3333 4.45749 23.5424 2.66663 21.3333 2.66663Z" fill="#6B758F"/>
<path id="Vector_2" d="M20.2131 6.66663H11.7865C11.0501 6.66663 10.4531 7.26358 10.4531 7.99996V12C10.4531 12.7363 11.0501 13.3333 11.7865 13.3333H20.2131C20.9495 13.3333 21.5465 12.7363 21.5465 12V7.99996C21.5465 7.26358 20.9495 6.66663 20.2131 6.66663Z" fill="white"/>
<path id="Vector_3" d="M20.6666 21.3334C21.7712 21.3334 22.6666 20.4379 22.6666 19.3334C22.6666 18.2288 21.7712 17.3334 20.6666 17.3334C19.5621 17.3334 18.6666 18.2288 18.6666 19.3334C18.6666 20.4379 19.5621 21.3334 20.6666 21.3334Z" fill="white"/>
<path id="Vector_4" d="M11.3334 21.3334C12.4379 21.3334 13.3334 20.4379 13.3334 19.3334C13.3334 18.2288 12.4379 17.3334 11.3334 17.3334C10.2288 17.3334 9.33337 18.2288 9.33337 19.3334C9.33337 20.4379 10.2288 21.3334 11.3334 21.3334Z" fill="white"/>
<path id="Vector_5" d="M10.6667 24L4 30.6667H9.33333L16 24H10.6667Z" fill="#E7ECEF"/>
<path id="Vector_6" d="M21.3737 24L28.0404 30.6667H22.7071L16.0404 24H21.3737Z" fill="#E7ECEF"/>
<path id="Vector_7" d="M21.3333 24H10.6666V27.3333H21.3333V24Z" fill="#E7ECEF"/>
</g>
</svg>
