<svg width="24" height="25" viewBox="0 0 24 25" fill="none" xmlns="http://www.w3.org/2000/svg">
<path d="M21 12.5L12 4.5L3 12.5V22.5H21V12.5Z" fill="#F3F3F7"/>
<path d="M10.6498 2.71965L1.79972 10.7197C1.70196 10.8086 1.62279 10.916 1.56681 11.0357C1.51082 11.1555 1.47913 11.2851 1.47355 11.4171C1.46797 11.5492 1.48865 11.681 1.53434 11.805C1.58002 11.9291 1.64981 12.0428 1.73972 12.1397L1.88975 12.2997C2.06906 12.4941 2.31811 12.6096 2.58237 12.6208C2.84663 12.6321 3.10454 12.5382 3.29972 12.3597L11.2997 5.05965C11.4835 4.89381 11.7222 4.80201 11.9698 4.80201C12.2173 4.80201 12.456 4.89381 12.6397 5.05965L20.6397 12.3597C20.8349 12.5382 21.0929 12.6321 21.3572 12.6208C21.6214 12.6096 21.8704 12.4941 22.0497 12.2997L22.1997 12.1397C22.289 12.0421 22.3581 11.9279 22.403 11.8035C22.4478 11.6791 22.4675 11.5471 22.461 11.415C22.4545 11.283 22.4219 11.1535 22.365 11.0342C22.3082 10.9148 22.2282 10.8079 22.1297 10.7197L13.2798 2.71965C12.9154 2.40173 12.4483 2.22656 11.9648 2.22656C11.4812 2.22656 11.0141 2.40173 10.6498 2.71965V2.71965Z" fill="#FE720C"/>
</svg>
