<svg width="20" height="20" viewBox="0 0 20 20" fill="none" xmlns="http://www.w3.org/2000/svg">
<path d="M19.1008 17.7743C19.1879 17.8614 19.257 17.9648 19.3041 18.0786C19.3512 18.1924 19.3755 18.3144 19.3755 18.4375C19.3755 18.5607 19.3512 18.6827 19.3041 18.7965C19.257 18.9103 19.1879 19.0137 19.1008 19.1008C19.0137 19.1879 18.9102 19.257 18.7964 19.3042C18.6826 19.3513 18.5607 19.3756 18.4375 19.3756C18.3143 19.3756 18.1923 19.3513 18.0785 19.3042C17.9647 19.257 17.8613 19.1879 17.7742 19.1008L9.99997 11.3254L2.22575 19.1008C2.04984 19.2767 1.81125 19.3756 1.56247 19.3756C1.31369 19.3756 1.0751 19.2767 0.899191 19.1008C0.723278 18.9249 0.624451 18.6863 0.624451 18.4375C0.624451 18.1888 0.723278 17.9502 0.899191 17.7743L8.67458 10L0.899191 2.22581C0.723278 2.0499 0.624451 1.81131 0.624451 1.56253C0.624451 1.31375 0.723278 1.07516 0.899191 0.899252C1.0751 0.723339 1.31369 0.624512 1.56247 0.624512C1.81125 0.624512 2.04984 0.723339 2.22575 0.899252L9.99997 8.67464L17.7742 0.899252C17.9501 0.723339 18.1887 0.624512 18.4375 0.624512C18.6863 0.624512 18.9248 0.723339 19.1008 0.899252C19.2767 1.07516 19.3755 1.31375 19.3755 1.56253C19.3755 1.81131 19.2767 2.0499 19.1008 2.22581L11.3254 10L19.1008 17.7743Z" fill="#222222"/>
</svg>
