<svg width="24" height="25" viewBox="0 0 24 25" fill="none" xmlns="http://www.w3.org/2000/svg">
<g id="2.heart">
<path id="Vector" d="M17.0003 5.83984C17.9803 5.83984 18.9003 6.21984 19.5903 6.90984C21.0203 8.33984 21.0203 10.6598 19.5903 12.0798L18.5903 13.0798L15.5903 16.0798L12.0003 19.6698L8.41026 16.0798L4.41026 12.0798C2.98026 10.6498 2.98026 8.32984 4.41026 6.90984C5.10026 6.21984 6.02027 5.83984 7.00027 5.83984C7.98027 5.83984 8.90027 6.21984 9.59027 6.90984L10.5903 7.90984L12.0003 9.31984L13.4103 7.90984L14.4103 6.90984C15.1003 6.21984 16.0203 5.83984 17.0003 5.83984M17.0003 3.83984C15.5503 3.83984 14.1003 4.38984 13.0003 5.49984L12.0003 6.49984L11.0003 5.49984C9.90027 4.39984 8.45027 3.83984 7.00027 3.83984C5.55027 3.83984 4.10027 4.38984 3.00027 5.49984C0.790273 7.70984 0.790273 11.2898 3.00027 13.4998L7.00027 17.4998L12.0003 22.4998L17.0003 17.4998L20.0003 14.4998L21.0003 13.4998C23.2103 11.2898 23.2103 7.70984 21.0003 5.49984C19.9003 4.39984 18.4503 3.83984 17.0003 3.83984V3.83984Z" fill="#FE720C"/>
</g>
</svg>
