<svg width="26" height="26" viewBox="0 0 26 26" fill="none" xmlns="http://www.w3.org/2000/svg">
<g id="right arrow">
<path id="Vector" d="M16.0372 13L9.2983 19.7373C9.14573 19.8899 9.06002 20.0968 9.06002 20.3125C9.06002 20.5283 9.14573 20.7352 9.2983 20.8878C9.45086 21.0404 9.65779 21.1261 9.87355 21.1261C10.0893 21.1261 10.2962 21.0404 10.4488 20.8878L17.7613 13.5753C17.837 13.4998 17.897 13.4102 17.938 13.3115C17.9789 13.2127 18 13.1069 18 13C18 12.8932 17.9789 12.7874 17.938 12.6886C17.897 12.5899 17.837 12.5003 17.7613 12.4248L10.4488 5.1123C10.2962 4.95973 10.0893 4.87402 9.87355 4.87402C9.65779 4.87402 9.45086 4.95973 9.2983 5.1123C9.14573 5.26487 9.06002 5.47179 9.06002 5.68755C9.06002 5.90331 9.14573 6.11023 9.2983 6.2628L16.0372 13Z" fill="#50535C"/>
</g>
</svg>
