<svg width="25" height="24" viewBox="0 0 25 24" fill="none" xmlns="http://www.w3.org/2000/svg">
<path d="M17.5 7C18.6 7 19.5 7.9 19.5 9V17C19.5 18.1 18.6 19 17.5 19H7.5C6.4 19 5.5 18.1 5.5 17V9C5.5 7.9 6.4 7 7.5 7H17.5ZM17.5 5H7.5C5.29 5 3.5 6.79 3.5 9V17C3.5 19.21 5.29 21 7.5 21H17.5C19.71 21 21.5 19.21 21.5 17V9C21.5 6.79 19.71 5 17.5 5Z" fill="#A2A5AD"/>
<path d="M12.5 1C11.81 1 11.25 1.56 11.25 2.25V5H13.75V2.25C13.75 1.56 13.19 1 12.5 1Z" fill="#A2A5AD"/>
<path d="M9.5 11C8.95 11 8.5 11.45 8.5 12V14C8.5 14.55 8.95 15 9.5 15C10.05 15 10.5 14.55 10.5 14V12C10.5 11.45 10.05 11 9.5 11Z" fill="#A2A5AD"/>
<path d="M15.5 11C14.95 11 14.5 11.45 14.5 12V14C14.5 14.55 14.95 15 15.5 15C16.05 15 16.5 14.55 16.5 14V12C16.5 11.45 16.05 11 15.5 11Z" fill="#A2A5AD"/>
<path d="M3.5 10C2.4 10 1.5 10.9 1.5 12V14C1.5 15.1 2.4 16 3.5 16V10Z" fill="#A2A5AD"/>
<path d="M21.5 10V16C22.6 16 23.5 15.1 23.5 14V12C23.5 10.9 22.6 10 21.5 10Z" fill="#A2A5AD"/>
</svg>
