<svg width="25" height="25" viewBox="0 0 25 25" fill="none" xmlns="http://www.w3.org/2000/svg">
<path d="M14.5 12.5C16.15 12.5 17.5 13.85 17.5 15.5V21.5H7.5V15.5C7.5 13.85 8.85 12.5 10.5 12.5H14.5ZM14.5 10.5H10.5C7.74 10.5 5.5 12.74 5.5 15.5V21.5C5.5 22.6 6.4 23.5 7.5 23.5H17.5C18.6 23.5 19.5 22.6 19.5 21.5V15.5C19.5 12.74 17.26 10.5 14.5 10.5Z" fill="#A2A5AD"/>
<path d="M12.5 3.5C13.6 3.5 14.5 4.4 14.5 5.5C14.5 6.6 13.6 7.5 12.5 7.5C11.4 7.5 10.5 6.6 10.5 5.5C10.5 4.4 11.4 3.5 12.5 3.5ZM12.5 1.5C10.29 1.5 8.5 3.29 8.5 5.5C8.5 7.71 10.29 9.5 12.5 9.5C14.71 9.5 16.5 7.71 16.5 5.5C16.5 3.29 14.71 1.5 12.5 1.5Z" fill="#A2A5AD"/>
</svg>
