<svg width="19" height="19" viewBox="0 0 19 19" fill="none" xmlns="http://www.w3.org/2000/svg">
<g id="ph:x">
<path id="Vector" d="M15.2639 14.4238C15.3191 14.4789 15.3628 14.5444 15.3927 14.6165C15.4226 14.6886 15.4379 14.7658 15.4379 14.8438C15.4379 14.9219 15.4226 14.9991 15.3927 15.0712C15.3628 15.1433 15.3191 15.2087 15.2639 15.2639C15.2087 15.3191 15.1433 15.3628 15.0712 15.3927C14.9991 15.4226 14.9219 15.4379 14.8438 15.4379C14.7658 15.4379 14.6886 15.4226 14.6165 15.3927C14.5444 15.3628 14.4789 15.3191 14.4238 15.2639L9.50009 10.3395L4.57641 15.2639C4.465 15.3753 4.3139 15.4379 4.15634 15.4379C3.99878 15.4379 3.84767 15.3753 3.73626 15.2639C3.62485 15.1525 3.56226 15.0014 3.56226 14.8438C3.56226 14.6863 3.62485 14.5352 3.73626 14.4238L8.66067 9.50009L3.73626 4.57641C3.62485 4.465 3.56226 4.3139 3.56226 4.15634C3.56226 3.99878 3.62485 3.84767 3.73626 3.73626C3.84767 3.62485 3.99878 3.56226 4.15634 3.56226C4.3139 3.56226 4.465 3.62485 4.57641 3.73626L9.50009 8.66067L14.4238 3.73626C14.5352 3.62485 14.6863 3.56226 14.8438 3.56226C15.0014 3.56226 15.1525 3.62485 15.2639 3.73626C15.3753 3.84767 15.4379 3.99878 15.4379 4.15634C15.4379 4.3139 15.3753 4.465 15.2639 4.57641L10.3395 9.50009L15.2639 14.4238Z" fill="#C9CDD5"/>
</g>
</svg>
