<svg width="56" height="13" viewBox="0 0 56 13" fill="none" xmlns="http://www.w3.org/2000/svg">
<path d="M0.28125 12V0.6875H1.6875V6.28125H1.82812L6.85938 0.6875H8.70312L3.96875 5.79688L8.70312 12H6.98438L3.09375 6.76562L1.6875 8.35938V12H0.28125ZM16.375 3.53125C16.25 2.42188 15.2344 1.78125 13.875 1.78125C12.375 1.78125 11.3906 2.5625 11.3906 3.64062C11.3906 4.82812 12.7188 5.26562 13.5781 5.48438L14.7031 5.79688C15.9219 6.10938 17.9062 6.8125 17.9062 8.92188C17.9062 10.7656 16.4219 12.2031 13.7969 12.2031C11.3594 12.2031 9.84375 10.9375 9.71875 9.0625H11.1562C11.2812 10.3281 12.4531 10.9219 13.7969 10.9219C15.3594 10.9219 16.5312 10.125 16.5312 8.89062C16.5312 7.79688 15.4844 7.375 14.2969 7.03125L12.9062 6.65625C11.125 6.14062 10.0312 5.23438 10.0312 3.70312C10.0312 1.79688 11.7344 0.53125 13.9219 0.53125C16.1094 0.53125 17.6875 1.8125 17.75 3.53125H16.375ZM22.0156 12L18.9219 0.6875H20.3438L22.7031 9.84375H22.8125L25.2031 0.6875H26.7812L29.1875 9.84375H29.2812L31.6406 0.6875H33.0625L29.9688 12H28.5156L26.0469 3.04688H25.9531L23.4688 12H22.0156ZM35.9688 0.6875V12H34.5625V0.6875H35.9688ZM38.4688 12V0.6875H42.3125C44.9688 0.6875 46.1719 2.26562 46.1719 4.28125C46.1719 6.28125 44.9688 7.89062 42.3281 7.89062H39.875V12H38.4688ZM39.875 6.64062H42.2656C44.0625 6.64062 44.7812 5.625 44.7812 4.28125C44.7812 2.92188 44.0625 1.9375 42.25 1.9375H39.875V6.64062ZM48.1406 12V0.6875H55V1.9375H49.5469V5.71875H54.6406V6.95312H49.5469V10.75H55.0781V12H48.1406Z" fill="#FE720C"/>
</svg>
